# xmcd
#
# Track frame offsets: 
#        150
#        14239
#        26362
#        40358
#        54506
#        66205
#        81778
#        95565
#        106989
#        119649
#        132231
#        145022
#        158354
#        172897
#        185621
#        197074
#        209248
#        223924
#        236934
#        249124
#
# Disc length: 3472 seconds
#
# Revision: 2
# Processed by: cddbd v1.5.2PL0 Copyright (c) Steve Scherf et al.
# Submitted via: ExactAudioCopyFreeDBPlugin 1.0
#
DISCID=270d8e14
DTITLE=Various Artist - VeeJay:  The Very Best of Blues [Rhino-Collec
DTITLE=tables box set]
DYEAR=2000
DGENRE=Blues
TTITLE0=Jimmy Reed - You Don't Have to Go
TTITLE1=Billy Boy Arnold - I Wish You Would
TTITLE2=Floyd Jones - Ain't Times Hard
TTITLE3=L.C. McKinley - Strange Girl
TTITLE4=Jimmy Reed - Sho Don't Want Me No More
TTITLE5=Morris Pejoe - Hurt My Feelings
TTITLE6=Eddie Taylor - Bad Boy
TTITLE7=John Lee Taylor - Wheel and Deal
TTITLE8=Earl Phillips - Oop-De-Oop
TTITLE9=Jimmy Reed - Found My Baby
TTITLE10=Billy Boy Arnold - I Was Fooled
TTITLE11=Pro McClam - Cinemascope
TTITLE12=Floyd Jones - School Days on My Mind
TTITLE13=L.C. McKinley - She's Five Feet Three
TTITLE14=Morris Pejoe - You're Gonna Need Me
TTITLE15=Joe Buckner - Recession
TTITLE16=Earl Phillips - Nothing But Love
TTITLE17=John Lee Hooker - Unfriendly Woman
TTITLE18=L.C. McKinley - I'm So Satisfied
TTITLE19=Jimmy Reed - I'm Gonna Ruin You
EXTD=YEAR: 1955
EXTT0=
EXTT1=
EXTT2=
EXTT3=
EXTT4=
EXTT5=
EXTT6=
EXTT7=
EXTT8=
EXTT9=
EXTT10=
EXTT11=
EXTT12=
EXTT13=
EXTT14=
EXTT15=
EXTT16=
EXTT17=
EXTT18=
EXTT19=
PLAYORDER=
